<?xml version="1.0" standalone="no"?>
<!DOCTYPE svg PUBLIC "-//W3C//DTD SVG 20010904//EN"
 "http://www.w3.org/TR/2001/REC-SVG-20010904/DTD/svg10.dtd">
<svg version="1.0" xmlns="http://www.w3.org/2000/svg"
 width="1024.000000pt" height="698.000000pt" viewBox="0 0 1024.000000 698.000000"
 preserveAspectRatio="xMidYMid meet">
<metadata>
Beanchat logo
</metadata>
<g transform="translate(0.000000,698.000000) scale(0.100000,-0.100000)"
fill="#ffffff" stroke="none">
<path d="M4385 6969 c-204 -13 -346 -29 -413 -44 -37 -9 -83 -18 -104 -20 -21
-3 -84 -16 -140 -30 -96 -23 -145 -38 -289 -86 -31 -11 -62 -19 -69 -19 -13 0
-75 -28 -172 -77 -26 -13 -50 -24 -53 -24 -11 1 -141 -62 -157 -76 -10 -9 -18
-13 -18 -10 0 4 -15 -4 -34 -16 -19 -12 -58 -35 -86 -52 -66 -38 -209 -132
-235 -155 -11 -10 -51 -39 -90 -66 -38 -26 -83 -61 -100 -78 -16 -17 -70 -67
-120 -110 -49 -44 -125 -120 -168 -170 -43 -50 -84 -94 -92 -99 -8 -4 -15 -14
-15 -21 0 -8 -7 -16 -15 -20 -8 -3 -34 -34 -57 -69 -24 -36 -73 -108 -110
-160 -37 -52 -78 -118 -92 -145 -30 -60 -29 -58 -86 -67 -25 -4 -87 -27 -138
-51 -52 -24 -100 -44 -108 -44 -24 0 -15 17 12 24 23 6 73 45 126 101 95 98
149 276 109 362 -7 15 -21 44 -30 63 -45 96 -175 178 -264 167 -55 -6 -173
-62 -202 -93 -11 -13 -167 -149 -234 -204 -45 -37 -78 -83 -91 -128 -7 -22 -8
-23 -9 -6 -1 21 -32 66 -89 130 -40 45 -129 90 -182 93 -25 1 -53 4 -63 7 -9
3 -42 -2 -72 -10 -58 -18 -137 -84 -165 -141 -8 -16 -23 -41 -32 -55 -44 -63
-99 -310 -69 -310 6 0 11 16 11 38 0 88 81 294 146 371 41 50 98 74 155 68 80
-10 145 -53 191 -128 24 -37 41 -143 33 -203 -8 -68 -55 -163 -111 -225 -42
-47 -44 -50 -25 -60 11 -6 41 -11 66 -11 95 0 102 -24 59 -193 -24 -97 -62
-173 -91 -184 -29 -11 0 -20 39 -12 78 15 86 12 109 -33 59 -116 69 -213 59
-568 -8 -292 -15 -349 -55 -485 -18 -63 -96 -199 -139 -245 -69 -72 -67 -113
6 -125 21 -4 40 -11 44 -16 12 -21 -70 -7 -186 32 -141 46 -230 85 -286 123
-39 26 -39 26 -40 99 -1 39 -5 111 -9 158 -8 96 9 195 65 384 17 55 51 182 77
281 l48 182 -49 93 c-59 113 -74 165 -81 284 -3 50 -11 146 -17 215 -14 153
-33 190 -24 45 27 -409 33 -447 87 -545 20 -36 40 -76 43 -88 8 -23 -29 -198
-64 -302 -28 -87 -59 -190 -87 -297 -22 -83 -26 -120 -26 -240 -1 -79 -4 -143
-8 -143 -4 0 -22 -12 -40 -27 -58 -49 -84 -142 -59 -208 16 -43 80 -98 155
-134 39 -19 79 -38 89 -44 11 -5 66 -25 123 -43 82 -27 125 -35 215 -40 159
-8 251 5 311 45 59 40 67 56 67 125 0 52 2 56 40 86 50 40 186 107 231 115 18
3 38 10 44 15 9 7 15 -25 24 -118 19 -204 75 -521 110 -627 11 -33 21 -68 21
-77 0 -19 54 -191 70 -223 5 -11 19 -47 31 -80 12 -33 28 -78 36 -100 8 -22
48 -109 90 -193 169 -340 357 -584 643 -830 47 -41 100 -87 117 -103 18 -16
35 -29 38 -29 3 0 34 -23 68 -51 95 -77 97 -79 103 -79 3 0 57 -34 119 -75 63
-41 119 -75 125 -75 6 0 28 -11 50 -25 22 -14 44 -25 50 -25 6 0 29 -9 51 -20
92 -47 119 -58 204 -84 50 -16 122 -39 160 -52 82 -27 224 -64 274 -70 20 -2
60 -11 88 -19 29 -9 101 -20 159 -26 59 -5 111 -12 116 -15 5 -3 95 -11 201
-18 214 -13 463 -6 618 19 53 8 114 15 135 15 22 0 77 9 124 20 252 58 357 84
371 91 9 4 52 18 95 29 43 12 83 25 88 31 6 5 16 9 24 9 7 0 37 11 65 24 29
13 63 27 77 31 59 18 420 194 420 205 0 3 25 19 55 35 30 17 55 33 55 38 0 4
7 7 15 7 8 0 15 4 15 8 0 5 12 14 26 21 83 37 406 335 587 541 56 63 105 116
109 118 5 2 8 10 8 18 0 8 4 14 8 14 5 0 37 42 72 93 35 50 70 98 77 105 8 8
20 28 28 45 8 18 23 46 33 62 52 84 92 160 127 240 10 22 28 63 40 90 13 28
33 76 44 108 12 31 30 81 41 110 69 186 137 468 174 732 31 214 36 293 36 547
0 239 1 257 18 262 24 8 52 68 52 111 0 40 -23 142 -46 206 -16 44 -25 96 -44
241 -9 65 -8 86 6 128 11 34 15 72 12 121 -3 65 -6 74 -36 100 -26 23 -42 29
-78 29 -25 0 -54 -4 -64 -10 -15 -8 -21 -4 -34 24 -9 19 -16 38 -16 43 0 22
-174 390 -191 403 -4 3 -20 26 -35 52 -100 164 -176 272 -278 393 -43 51 -294
305 -302 305 -1 0 -15 11 -30 24 -79 67 -195 155 -244 186 -30 19 -56 38 -58
42 -2 5 -10 8 -18 8 -8 0 -14 5 -14 10 0 6 -5 10 -11 10 -6 0 -31 14 -56 31
-53 37 -351 189 -370 189 -7 0 -37 11 -67 25 -30 14 -61 25 -68 25 -8 0 -32 8
-54 18 -21 10 -84 30 -139 45 -221 58 -291 75 -313 75 -12 1 -73 10 -135 21
-226 42 -546 58 -802 40z m315 -129 c204 -10 321 -22 430 -45 83 -16 158 -31
240 -46 112 -20 335 -89 500 -154 131 -51 205 -88 305 -154 39 -25 97 -61 131
-81 90 -52 165 -103 160 -108 -3 -2 -53 4 -111 13 -180 28 -343 42 -513 44
-191 2 -272 -10 -322 -50 -38 -29 -70 -101 -70 -155 0 -40 41 -78 100 -92 100
-25 405 -93 505 -112 104 -20 214 -51 268 -74 49 -22 55 -22 99 -9 35 10 52
21 63 42 31 62 53 139 58 207 5 64 3 77 -20 120 -21 40 -22 46 -7 33 101 -85
216 -182 258 -216 59 -48 199 -189 230 -232 11 -16 47 -62 78 -102 32 -41 66
-85 77 -99 86 -112 246 -407 300 -555 12 -33 27 -68 32 -77 8 -16 4 -18 -28
-20 -115 -5 -226 17 -498 97 -82 24 -176 51 -207 60 -32 8 -58 19 -58 23 0 16
-87 122 -130 159 -50 44 -141 103 -157 103 -6 0 -16 7 -23 16 -18 21 -78 46
-117 50 -18 2 -41 8 -52 13 -23 13 -34 2 -20 -19 16 -27 9 -47 -8 -22 -18 25
-33 29 -33 7 0 -28 21 -60 51 -77 16 -9 29 -25 29 -35 0 -24 29 -68 78 -120
l40 -43 -33 0 c-58 0 -257 -38 -361 -69 -113 -35 -238 -82 -524 -198 -336
-138 -332 -137 -461 -88 l-65 25 -23 64 c-24 69 -78 162 -99 171 -10 3 -11 -1
-6 -18 l6 -22 -25 24 c-15 13 -24 27 -22 32 3 4 0 11 -6 15 -8 5 -9 3 -4 -6 6
-10 4 -12 -8 -7 -29 11 6 -46 63 -103 27 -27 53 -62 56 -77 4 -16 11 -33 16
-40 13 -16 34 -23 -378 127 -315 115 -522 153 -754 140 -189 -11 -318 -39
-750 -165 -198 -57 -298 -74 -473 -82 -156 -6 -160 -6 -151 13 5 10 9 47 9 81
0 53 -4 66 -31 100 -31 39 -231 184 -339 247 -33 19 -81 40 -108 47 -26 6 -47
14 -46 18 4 30 209 311 319 436 58 66 116 132 129 147 20 23 138 125 276 238
24 19 73 55 110 80 37 25 87 60 112 78 108 80 539 292 668 329 28 8 89 25 136
37 48 13 91 26 95 29 9 5 240 52 374 76 47 9 153 19 345 34 81 7 104 7 295 -3z
m-3259 -932 c64 -50 94 -116 94 -208 0 -96 -30 -157 -123 -253 -93 -95 -139
-121 -199 -112 -43 6 -46 5 -33 -10 7 -9 28 -22 47 -30 46 -19 43 -47 -13
-148 -54 -96 -85 -132 -137 -158 -42 -22 -41 -34 3 -44 49 -11 64 -44 57 -128
-9 -101 -62 -264 -94 -284 -23 -15 -25 -14 -53 12 -15 15 -31 41 -34 59 -3 17
-26 64 -51 103 -24 40 -47 84 -51 99 -4 15 -7 97 -8 183 -1 139 -3 160 -22
195 l-21 40 20 45 c14 32 22 79 27 156 8 128 25 166 106 232 26 21 90 77 141
124 176 160 260 191 344 127z m421 -598 c29 -12 78 -39 108 -61 30 -21 93 -65
140 -95 47 -31 104 -72 128 -91 38 -31 42 -39 42 -79 0 -85 -73 -185 -168
-230 -44 -21 -131 -14 -201 16 -58 25 -124 90 -147 145 -9 22 -19 35 -21 28
-2 -7 -10 -10 -17 -7 -8 3 -29 -17 -51 -47 -54 -73 -116 -95 -195 -68 -37 13
-45 7 -55 -50 -16 -87 -37 -139 -73 -178 -20 -23 -43 -48 -50 -57 -20 -24 -27
-20 -50 32 -20 45 -22 60 -18 224 l4 175 44 45 c23 25 61 82 82 126 35 72 44
83 75 93 20 7 63 25 96 42 33 17 78 36 100 43 63 20 166 17 227 -6z m-39 -677
l169 -37 -40 -37 c-39 -35 -72 -110 -72 -161 0 -11 -21 -32 -54 -53 -58 -37
-86 -68 -86 -97 0 -25 -33 -23 -128 8 -51 16 -89 35 -107 54 -27 28 -27 29
-16 100 7 40 15 80 20 89 5 9 12 36 16 61 3 25 11 62 16 83 l10 39 52 -7 c29
-3 128 -22 220 -42z m401 -43 c23 -11 47 -29 54 -40 18 -29 17 -119 -2 -208
-9 -40 -16 -106 -16 -145 0 -96 -17 -123 -107 -170 -81 -42 -123 -85 -199
-203 -60 -93 -128 -153 -228 -202 -59 -29 -167 -50 -332 -67 -58 -5 -63 -4
-82 20 -11 14 -24 25 -30 25 -5 0 -13 7 -16 16 -7 18 -28 -1 -197 -172 -84
-86 -113 -101 -148 -75 -21 16 -21 17 -5 101 19 105 38 178 63 250 10 30 24
81 31 113 14 69 55 121 101 131 30 6 56 30 129 117 19 23 66 67 103 96 38 30
73 65 79 78 17 37 37 38 74 6 19 -17 53 -35 76 -41 24 -6 73 -20 111 -30 l67
-18 0 37 c0 41 29 75 87 105 31 16 31 15 53 -17 12 -17 19 -23 15 -12 -15 43
-17 94 -5 149 9 46 20 66 52 96 74 73 193 99 272 60z m5369 -17 c3 -21 13 -69
22 -108 8 -38 18 -97 20 -130 3 -33 8 -78 12 -100 22 -139 -11 -667 -52 -837
-9 -34 -20 -139 -24 -233 -5 -93 -12 -177 -16 -186 -3 -9 -14 -61 -24 -115
-11 -54 -31 -141 -45 -192 -14 -51 -26 -100 -26 -108 0 -23 -75 -198 -132
-309 -28 -55 -88 -156 -134 -225 -65 -97 -99 -138 -154 -182 -38 -32 -75 -58
-81 -58 -5 0 -72 -64 -147 -142 -175 -183 -294 -296 -374 -358 -190 -149 -170
-136 -297 -203 -39 -20 -93 -54 -120 -75 -28 -20 -72 -43 -98 -50 -63 -18
-120 -42 -158 -68 -18 -12 -42 -24 -56 -27 -45 -10 -134 -44 -173 -65 -22 -12
-43 -19 -48 -16 -5 3 -24 -4 -42 -16 -43 -26 -319 -97 -449 -115 -53 -8 -102
-17 -107 -20 -23 -14 -281 -28 -515 -27 -286 1 -454 12 -538 36 -32 9 -62 14
-67 11 -4 -2 -34 2 -66 11 -32 8 -64 12 -71 10 -14 -6 -123 18 -158 34 -11 5
-47 16 -80 24 -157 40 -388 136 -490 204 -27 19 -66 42 -85 52 -54 28 -282
187 -331 231 -14 13 -54 49 -90 79 -67 58 -218 212 -232 236 -4 8 -24 31 -43
51 -50 54 -140 194 -176 271 -16 37 -36 79 -44 94 -8 14 -14 37 -14 50 0 13
-7 33 -15 44 -8 10 -15 36 -15 56 0 20 -4 39 -8 42 -5 3 -8 28 -6 55 1 33 -2
54 -12 62 -18 15 -18 29 0 29 12 0 11 6 -1 42 -8 22 -22 52 -33 65 -10 13 -16
32 -13 42 7 27 -62 171 -82 171 -8 0 -15 7 -15 15 0 8 -8 23 -18 33 -19 19
-34 46 -38 72 -9 51 -24 95 -33 98 -6 2 -11 16 -11 32 0 15 -7 33 -14 40 -8 6
-20 27 -26 46 -6 19 -16 34 -21 34 -5 0 -9 8 -9 19 0 10 -7 38 -16 62 -16 46
-35 129 -58 264 -27 153 -28 145 19 165 23 10 75 26 116 35 176 41 304 102
380 182 26 26 76 89 112 138 50 70 85 105 150 153 93 68 111 90 133 160 19 58
35 290 23 340 -4 20 -7 38 -5 39 2 2 32 -6 67 -17 122 -39 156 -92 209 -329
40 -179 82 -299 138 -396 201 -352 515 -593 864 -666 90 -18 124 -20 268 -16
284 10 483 78 687 234 77 59 209 191 239 239 10 16 32 47 49 69 40 53 119 207
135 268 15 56 27 66 45 40 7 -11 32 -32 55 -48 31 -22 52 -49 82 -109 74 -148
200 -298 353 -421 103 -83 302 -163 445 -180 77 -9 274 -9 345 0 74 10 200 49
280 86 231 107 496 374 624 626 52 105 81 191 121 368 54 237 72 275 150 309
51 22 57 20 63 -21z m-2479 -175 c3 -13 7 -95 10 -183 2 -104 10 -181 20 -219
9 -33 15 -64 13 -69 -5 -17 -89 92 -89 116 2 86 14 336 18 355 2 12 9 22 14
22 5 0 12 -10 14 -22z m-4910 -1017 c123 -61 293 -124 460 -172 62 -18 76 -37
50 -72 -47 -64 -163 -80 -309 -43 -115 30 -285 110 -332 156 -29 28 -53 82
-53 118 0 18 28 82 36 82 4 0 70 -31 148 -69z"/>
<path d="M3615 6319 c-111 -9 -386 -40 -401 -44 -7 -2 -25 -20 -40 -41 -28
-36 -29 -41 -26 -128 3 -73 10 -107 35 -171 17 -44 35 -85 39 -92 18 -23 109
-26 168 -5 72 26 145 42 445 97 328 60 474 93 501 113 53 40 27 184 -41 231
-59 40 -139 50 -375 49 -118 0 -255 -4 -305 -9z"/>
<path d="M7016 3300 c-15 -5 -36 -16 -45 -24 -32 -29 -390 -145 -686 -222 -77
-20 -210 -56 -295 -81 -161 -46 -233 -56 -580 -83 -80 -6 -206 -17 -280 -26
-190 -21 -1006 -15 -1155 10 -55 9 -217 30 -359 46 -328 39 -574 74 -702 100
-54 12 -153 33 -219 46 -200 42 -233 36 -277 -51 -12 -22 -30 -51 -40 -66 -19
-26 -19 -28 -3 -53 12 -19 23 -25 34 -20 9 4 45 17 81 29 36 12 75 28 86 35
17 11 39 3 171 -63 144 -73 160 -84 354 -248 112 -95 242 -206 289 -248 137
-124 205 -177 282 -222 40 -23 134 -81 208 -130 115 -75 155 -95 265 -133 200
-68 344 -93 580 -103 308 -12 343 -10 568 30 223 39 227 41 462 156 137 67
158 82 240 160 50 48 121 116 160 151 82 77 163 168 269 305 151 193 316 380
363 412 26 17 83 50 126 72 l78 41 37 -19 c20 -11 59 -35 86 -55 28 -19 52
-34 54 -32 2 2 -4 18 -13 35 -17 34 -93 86 -137 96 -16 4 -28 11 -28 17 0 6
23 35 51 66 47 52 50 57 33 69 -20 15 -18 14 -58 3z m-496 -274 c0 -40 -33
-161 -57 -213 -23 -48 -33 -59 -56 -61 -24 -3 -28 0 -23 15 2 10 13 61 22 113
22 126 27 137 66 149 46 13 48 13 48 -3z m-226 -167 c-32 -154 -45 -177 -124
-216 -65 -33 -113 -41 -139 -24 -12 8 -11 29 8 143 13 73 24 138 26 144 2 6
33 17 70 24 37 7 85 18 108 26 80 24 78 28 51 -97z m-3199 75 c44 -8 89 -17
101 -19 19 -4 22 -16 33 -122 6 -65 14 -134 16 -154 8 -63 -21 -57 -121 28
-190 160 -193 163 -202 233 l-9 62 51 -6 c28 -4 87 -13 131 -22z m575 -99
c141 -22 382 -34 890 -45 393 -8 438 -7 597 11 95 11 226 24 290 29 218 18
308 28 397 44 49 9 103 16 122 16 32 0 32 -1 23 -32 -5 -18 -14 -59 -20 -91
-5 -32 -26 -89 -45 -127 -30 -61 -40 -72 -82 -90 -29 -14 -86 -26 -151 -32
-89 -9 -109 -8 -137 6 -32 15 -34 19 -35 68 l-1 53 -13 -54 c-7 -29 -18 -58
-23 -63 -6 -6 -59 -23 -119 -39 -97 -26 -119 -28 -213 -23 -144 8 -155 13
-176 83 -10 31 -18 77 -18 103 0 26 -4 44 -8 42 -4 -3 -8 -17 -8 -32 0 -44
-37 -165 -54 -178 -9 -6 -65 -21 -124 -33 -89 -17 -127 -20 -213 -15 -154 10
-178 28 -180 137 l-1 52 -15 -76 c-14 -74 -16 -77 -51 -93 -61 -27 -245 -26
-372 2 -60 13 -112 30 -122 40 -9 9 -23 49 -31 87 l-14 70 -7 -60 c-4 -33 -10
-66 -15 -74 -28 -53 -202 -45 -333 16 l-76 36 -28 71 c-22 53 -30 94 -34 162
l-5 90 150 -23 c83 -12 197 -30 255 -38z m2598 -240 c28 -62 12 -117 -64 -217
-41 -53 -161 -168 -176 -168 -8 0 -17 59 -20 137 -2 35 -6 63 -11 63 -15 0
-25 -46 -32 -146 l-7 -102 -46 -45 c-36 -36 -78 -60 -184 -107 -75 -33 -149
-67 -164 -75 -24 -12 -32 -12 -48 -1 -18 11 -22 10 -37 -8 -13 -16 -51 -27
-175 -51 -144 -28 -168 -30 -249 -22 -96 9 -123 25 -126 71 -1 11 -5 3 -8 -19
-6 -38 -8 -41 -56 -53 -35 -9 -96 -12 -205 -9 -130 4 -168 9 -235 30 -44 14
-139 41 -211 61 -188 50 -196 54 -342 149 -73 48 -135 87 -138 87 -24 0 -219
153 -354 279 -58 54 -62 60 -40 60 14 1 50 -6 80 -14 30 -8 75 -15 100 -15 86
0 191 -26 219 -54 23 -24 26 -33 24 -99 l-2 -72 10 54 c5 30 10 55 12 55 1 1
22 16 46 35 43 33 44 34 110 26 36 -5 127 -9 202 -10 l136 -1 38 -43 38 -42
13 30 c23 54 48 63 186 59 68 -1 157 -1 198 2 74 4 77 3 117 -29 38 -30 42
-39 48 -90 10 -92 20 -92 23 2 l3 87 40 27 c36 24 48 26 132 25 51 0 133 4
184 9 100 10 117 6 172 -38 34 -27 34 -27 29 -5 -4 15 1 31 15 47 20 23 31 26
127 31 58 3 134 10 170 16 36 7 75 11 88 10 32 -3 90 -49 95 -75 3 -14 5 -9 6
13 0 20 -6 46 -15 59 -15 21 -15 24 2 40 12 11 64 26 134 40 63 12 116 24 119
26 10 10 18 4 29 -20z"/>
<path d="M6413 2117 c-59 -56 -130 -123 -158 -147 -27 -24 -122 -117 -210
-207 -148 -150 -170 -169 -290 -241 -238 -143 -268 -157 -416 -191 -75 -17
-177 -41 -225 -54 -85 -23 -99 -24 -349 -19 l-260 4 -150 39 c-223 57 -299 84
-410 146 -135 75 -344 203 -351 214 -9 15 -34 10 -28 -6 7 -18 66 -61 259
-190 158 -105 213 -128 405 -171 41 -9 127 -31 190 -49 112 -32 122 -33 350
-38 251 -5 227 -8 560 55 109 20 129 28 365 144 246 121 252 124 360 221 61
54 151 132 200 174 126 105 229 241 264 349 12 35 21 65 21 67 0 15 -34 -12
-127 -100z"/>
<path d="M8980 3010 c-19 -11 -42 -22 -50 -26 -55 -27 -120 -157 -120 -240 0
-17 -9 -57 -20 -89 -16 -45 -20 -84 -20 -176 0 -101 -4 -130 -27 -201 -23 -69
-27 -99 -25 -178 1 -64 -5 -123 -17 -180 -11 -47 -27 -137 -37 -200 -19 -130
-26 -150 -55 -150 -68 0 -147 -88 -184 -206 -26 -80 -28 -99 -29 -268 l-1
-181 33 -66 c26 -52 47 -76 90 -109 31 -23 68 -44 82 -46 18 -4 36 -24 65 -72
21 -36 62 -91 91 -121 49 -54 51 -59 57 -127 4 -46 13 -83 26 -105 12 -19 21
-40 21 -47 0 -18 61 -99 80 -106 8 -3 30 -17 48 -30 38 -29 124 -56 174 -56
19 0 57 -7 83 -15 37 -11 111 -14 310 -15 312 0 320 2 387 96 l42 59 0 120 c0
113 -2 123 -29 175 -16 30 -33 56 -37 58 -4 2 -8 9 -8 15 0 8 16 11 50 9 43
-3 58 1 122 38 61 35 80 52 112 103 33 54 39 71 43 138 6 86 -14 165 -51 202
-45 44 -120 97 -138 97 -28 0 -22 17 27 69 25 26 45 53 45 60 0 6 8 19 18 29
32 33 50 68 61 125 11 50 10 61 -8 103 -12 26 -21 55 -21 65 0 10 -11 26 -25
35 -14 9 -25 20 -25 25 0 17 -86 91 -140 120 -56 31 -154 50 -333 64 -54 5
-80 11 -84 21 -3 8 -9 14 -14 14 -4 0 -30 23 -56 51 -55 59 -103 142 -103 180
0 14 -9 51 -20 83 -19 56 -19 56 2 91 18 32 20 49 17 178 -2 94 2 162 11 201
11 48 11 72 0 140 -20 129 -71 206 -165 250 -47 22 -211 19 -255 -4z m283 -58
c116 -51 160 -248 88 -390 -17 -33 -17 -39 -5 -48 12 -7 15 -33 16 -114 2
-123 -7 -147 -79 -210 l-48 -42 42 23 c23 13 45 21 48 17 4 -3 18 -50 31 -104
30 -116 52 -161 106 -220 23 -25 38 -47 35 -50 -3 -3 -51 0 -108 7 -141 16
-197 9 -299 -39 -85 -40 -88 -42 -142 -132 -27 -45 -42 -148 -30 -211 13 -70
45 -139 77 -169 l24 -23 -45 -40 c-25 -22 -54 -57 -64 -78 -19 -36 -21 -38
-51 -27 -31 11 -85 6 -153 -14 -40 -12 -92 -71 -134 -154 -24 -48 -22 -66 20
-147 16 -32 28 -62 26 -67 -6 -18 -85 44 -114 89 -44 69 -64 151 -64 266 0
184 38 327 109 407 35 40 98 70 87 42 -3 -9 -6 -22 -6 -30 0 -8 -14 -28 -30
-46 -41 -42 -45 -65 -21 -120 16 -38 25 -47 53 -53 18 -3 59 -15 90 -26 41
-13 64 -16 82 -9 38 14 40 29 9 68 -45 56 -58 122 -40 200 9 35 26 78 39 95
14 18 27 40 31 49 7 20 64 58 87 58 8 0 30 14 48 30 48 44 43 71 -24 139 -78
79 -108 131 -100 179 15 89 25 215 25 320 1 76 6 124 16 149 11 26 15 74 15
182 0 158 9 190 62 225 71 47 207 55 291 18z m312 -1192 c296 -30 369 -41 404
-62 63 -37 122 -101 155 -168 31 -62 32 -68 22 -120 -9 -47 -18 -61 -61 -100
-83 -76 -104 -82 -325 -92 -214 -10 -415 -3 -471 16 -64 22 -104 61 -122 119
-34 107 -13 263 43 335 12 14 43 39 68 54 40 24 58 28 122 28 41 0 116 -5 165
-10z m120 -654 c121 -4 139 -8 257 -48 151 -51 203 -85 245 -159 30 -54 31
-55 19 -119 -15 -78 -68 -159 -122 -185 -76 -36 -133 -44 -224 -32 -96 13
-146 14 -275 2 -69 -6 -108 -4 -170 9 -77 16 -82 19 -147 83 -55 54 -72 79
-93 136 -24 64 -24 73 -14 135 12 70 55 138 102 164 24 12 154 24 237 21 30
-1 114 -4 185 -7z m-795 -288 c0 -7 32 -45 71 -84 l71 -71 -49 -12 c-26 -7
-62 -23 -80 -37 l-32 -24 -16 52 c-19 67 -19 109 2 153 17 35 33 46 33 23z
m624 -283 c220 -23 302 -35 333 -46 34 -12 103 -104 103 -136 0 -13 4 -23 8
-23 4 0 4 -39 0 -87 -7 -79 -12 -94 -46 -142 -53 -76 -68 -80 -330 -81 -226
-2 -359 14 -454 54 -52 22 -113 106 -127 176 -19 89 1 170 59 233 45 48 48 50
116 57 115 12 190 11 338 -5z"/>
</g>
</svg>
